<?xml version="1.0" encoding="UTF-8"?>
<svg color-interpolation-filters="sRGB" style="margin:auto" data-v-2cb57da0="" version="1.0" viewBox="0 0 340 250" xmlns="http://www.w3.org/2000/svg">
<rect class="background" width="100%" height="100%" fill="#feffff" data-v-2cb57da0=""/>
<g class="j-b-g-c iconbgsvg" transform="translate(95,50)" fill="#141414" mask="url(#e)" data-v-2cb57da0="">
<g transform="translate(0)" data-d="container">
<rect class="image-rect" width="150" height="150" fill="#141414" fill-opacity="0" stroke-width="2"/>
<svg class="image-svg-container primary" width="150" height="150" filter="url(#b)" overflow="visible" filtersec="colorsf3066280976">
<svg enable-background="new 0 0 100 100" fill="#000000" overflow="visible" version="1.1" viewBox="2.5 2.5 95 95" xml:space="preserve" xmlns="http://www.w3.org/2000/svg" xmlns:xlink="http://www.w3.org/1999/xlink"><g transform="scale(1)"><path d="m50 6.5c-23.986 0-43.5 19.514-43.5 43.5s19.514 43.5 43.5 43.5 43.5-19.514 43.5-43.5-19.514-43.5-43.5-43.5z"/><path d="M50,2.5C23.767,2.5,2.5,23.767,2.5,50S23.767,97.5,50,97.5S97.5,76.233,97.5,50S76.233,2.5,50,2.5z M50,95.5   C24.911,95.5,4.5,75.089,4.5,50S24.911,4.5,50,4.5S95.5,24.911,95.5,50S75.089,95.5,50,95.5z"/></g></svg>
</svg>
<defs>
<filter id="colors4015197864">
<feColorMatrix class="icon-fecolormatrix" values="0 0 0 0 0.078125  0 0 0 0 0.078125  0 0 0 0 0.078125  0 0 0 1 0"/>
</filter>
</defs>
</g>
<g transform="translate(32.16 22.038)" data-d="icon-text" hollow-target="textRect">
<g class="iconsvg-imagesvg" transform="translate(17.84)" data-d="icon">
<svg class="image-svg-svg primary" width="50" height="71.924" filter="url(#a)" overflow="visible" filtersec="colorsf6060061137">
<svg viewBox="0.00072479248046875 0 34.53662109375 49.68000030517578" xmlns="http://www.w3.org/2000/svg" xmlns:xlink="http://www.w3.org/1999/xlink">
<path transform="translate(-2.0427 48.96)" d="m20.88-48.96c-9.65 0-17.71 5.04-17.71 12.53 0 14.83 24.33 15.84 24.33 26.78 0 4.11-3.45 7.06-8.35 7.06-6.84 0-11.01-6.19-14.97-13.03-0.8 0-2.09 0.36-2.09 1.29-0.22 3.39 0.36 7.49 1.29 10.3 2.6 2.37 8.07 4.75 15.27 4.75 10.94 0 17.93-5.47 17.93-12.6-0.15-7.78-6.2-11.81-12.39-14.9-2.16-1.08-4.17-2.16-5.97-3.32-3.68-2.23-6.41-4.75-6.41-8.78 0-4.54 3.74-6.77 7.41-6.77 5.76 0 9.22 5.76 12.68 10.59 0.86 0 2.08-0.29 2.16-1.37 0-1.95-0.36-7.56-1.73-9.29-1.66-1.37-5.4-3.24-11.45-3.24z"/>
</svg>
</svg>
<defs>
<filter id="colors3213396587">
<feColorMatrix class="icon-fecolormatrix" values="0 0 0 0 0.078125  0 0 0 0 0.078125  0 0 0 0 0.078125  0 0 0 1 0"/>
</filter>
</defs>
</g>
<g transform="translate(0 78.924)" data-d="text">
<g class="tp-name iconsvg-namesvg" fill-rule="" data-gra="path-name">
<g transform="scale(1)">
<path transform="translate(-1.05 16.7)" d="m1.05-2.13 1.25-1.45q0.88 0.93 2.06 1.49 1.19 0.56 2.47 0.56 1.62 0 2.52-0.73 0.9-0.74 0.9-1.94 0-0.63-0.21-1.06-0.21-0.44-0.58-0.75-0.36-0.32-0.86-0.57t-1.07-0.52l-2.35-1.03q-0.58-0.25-1.18-0.59-0.6-0.36-1.07-0.86-0.48-0.5-0.78-1.18-0.3-0.69-0.3-1.59 0-0.93 0.39-1.73t1.07-1.38q0.69-0.59 1.63-0.92 0.94-0.32 2.06-0.32 1.47 0 2.73 0.56 1.25 0.56 2.12 1.46l-1.12 1.35q-0.75-0.72-1.67-1.13-0.91-0.42-2.06-0.42-1.37 0-2.21 0.64t-0.84 1.76q0 0.6 0.24 1.02 0.23 0.41 0.64 0.72 0.4 0.31 0.87 0.55 0.48 0.24 0.98 0.44l2.32 1q0.7 0.3 1.33 0.69 0.62 0.38 1.07 0.9 0.45 0.51 0.71 1.2 0.27 0.68 0.27 1.58 0 0.98-0.39 1.83t-1.11 1.49q-0.73 0.63-1.75 1-1.03 0.36-2.33 0.36-1.72 0-3.2-0.65-1.47-0.65-2.55-1.78zm17.03 2.13v-6.35l-4.93-10.05h2.23l2.12 4.62q0.4 0.9 0.78 1.78 0.37 0.87 0.8 1.8h0.1q0.42-0.93 0.85-1.8 0.42-0.88 0.8-1.78l2.1-4.62h2.17l-4.92 10.05v6.35h-2.1zm9.25 0v-16.4h2.15l5.92 10.3 1.78 3.4h0.1q-0.08-1.25-0.17-2.59-0.08-1.34-0.08-2.64v-8.47h1.97v16.4h-2.15l-5.95-10.33-1.77-3.37h-0.1q0.1 1.25 0.18 2.54 0.09 1.28 0.09 2.58v8.58h-1.97zm18.22-6.68h4.93l-0.78-2.5q-0.45-1.37-0.85-2.73-0.4-1.37-0.8-2.79h-0.1q-0.37 1.42-0.78 2.79-0.4 1.36-0.84 2.73l-0.78 2.5zm7 6.68-1.55-5h-5.98l-1.57 5h-2.12l5.55-16.4h2.35l5.54 16.4h-2.22zm2.78 0 4.77-8.47-4.45-7.93h2.3l2.23 4.2q0.32 0.57 0.61 1.11t0.66 1.26h0.1q0.35-0.72 0.61-1.26 0.27-0.54 0.57-1.11l2.17-4.2h2.2l-4.47 8.02 4.77 8.38h-2.3l-2.4-4.42q-0.32-0.61-0.66-1.24-0.34-0.64-0.74-1.39h-0.1q-0.35 0.75-0.67 1.39-0.33 0.63-0.63 1.24l-2.37 4.42h-2.2zm14.7 0v-16.4h2.07v16.4h-2.07zm5.37-2.13 1.25-1.45q0.88 0.93 2.06 1.49 1.19 0.56 2.47 0.56 1.62 0 2.52-0.73 0.9-0.74 0.9-1.94 0-0.63-0.21-1.06-0.21-0.44-0.58-0.75-0.36-0.32-0.86-0.57t-1.07-0.52l-2.35-1.03q-0.58-0.25-1.18-0.59-0.6-0.36-1.07-0.86-0.48-0.5-0.78-1.18-0.3-0.69-0.3-1.59 0-0.93 0.39-1.73t1.07-1.38q0.69-0.59 1.63-0.92 0.94-0.32 2.06-0.32 1.48 0 2.73 0.56t2.12 1.46l-1.12 1.35q-0.75-0.72-1.67-1.13-0.91-0.42-2.06-0.42-1.37 0-2.21 0.64t-0.84 1.76q0 0.6 0.24 1.02 0.24 0.41 0.64 0.72t0.87 0.55q0.48 0.24 0.98 0.44l2.32 1q0.7 0.3 1.33 0.69 0.62 0.38 1.07 0.9 0.45 0.51 0.71 1.2 0.27 0.68 0.27 1.58 0 0.98-0.39 1.83t-1.11 1.49q-0.73 0.63-1.75 1-1.03 0.36-2.33 0.36-1.72 0-3.2-0.65-1.47-0.65-2.55-1.78z"/>
</g>
</g>
</g>
</g>
</g>
<defs>
<filter id="c">
<feColorMatrix values="0 0 0 0 0  0 0 0 0 0  0 0 0 0 0  0 0 0 1 0"/>
</filter>
<filter id="d">
<feColorMatrix values="0 0 0 0 0.99609375  0 0 0 0 0.99609375  0 0 0 0 0.99609375  0 0 0 1 0"/>
</filter>
</defs>
<mask id="e">
<g class="j-b-g-c iconbgsvg" fill="#141414" data-v-2cb57da0="">
<g transform="translate(0)" data-d="container">
<rect class="image-rect" width="150" height="150" fill="#141414" fill-opacity="0" stroke="#000" stroke-width="2"/>
<svg class="image-svg-container primary" width="150" height="150" filter="url(#d)" overflow="visible" filtersec="colorsf3066280976">
<svg enable-background="new 0 0 100 100" fill="#000000" overflow="visible" version="1.1" viewBox="2.5 2.5 95 95" xml:space="preserve" xmlns="http://www.w3.org/2000/svg" xmlns:xlink="http://www.w3.org/1999/xlink"><g transform="scale(1)"><path d="m50 6.5c-23.986 0-43.5 19.514-43.5 43.5s19.514 43.5 43.5 43.5 43.5-19.514 43.5-43.5-19.514-43.5-43.5-43.5z"/><path d="M50,2.5C23.767,2.5,2.5,23.767,2.5,50S23.767,97.5,50,97.5S97.5,76.233,97.5,50S76.233,2.5,50,2.5z M50,95.5   C24.911,95.5,4.5,75.089,4.5,50S24.911,4.5,50,4.5S95.5,24.911,95.5,50S75.089,95.5,50,95.5z"/></g></svg>
</svg>
<defs>
<filter id="b">
<feColorMatrix class="icon-fecolormatrix" values="0 0 0 0 0.078125  0 0 0 0 0.078125  0 0 0 0 0.078125  0 0 0 1 0"/>
</filter>
</defs>
</g>
<g transform="translate(32.16 22.038)" filter="url(#c)" data-d="icon-text" hollow-target="textRect">
<g class="iconsvg-imagesvg" transform="translate(17.84)" data-d="icon">
<svg class="image-svg-svg primary" width="50" height="71.924" filter="url(#a)" overflow="visible" filtersec="colorsf6060061137">
<svg overflow="visible" viewBox="0.00072479248046875 0 34.53662109375 49.68000030517578" xmlns="http://www.w3.org/2000/svg" xmlns:xlink="http://www.w3.org/1999/xlink">
<path transform="translate(-2.0427 48.96)" d="m20.88-48.96c-9.65 0-17.71 5.04-17.71 12.53 0 14.83 24.33 15.84 24.33 26.78 0 4.11-3.45 7.06-8.35 7.06-6.84 0-11.01-6.19-14.97-13.03-0.8 0-2.09 0.36-2.09 1.29-0.22 3.39 0.36 7.49 1.29 10.3 2.6 2.37 8.07 4.75 15.27 4.75 10.94 0 17.93-5.47 17.93-12.6-0.15-7.78-6.2-11.81-12.39-14.9-2.16-1.08-4.17-2.16-5.97-3.32-3.68-2.23-6.41-4.75-6.41-8.78 0-4.54 3.74-6.77 7.41-6.77 5.76 0 9.22 5.76 12.68 10.59 0.86 0 2.08-0.29 2.16-1.37 0-1.95-0.36-7.56-1.73-9.29-1.66-1.37-5.4-3.24-11.45-3.24z"/>
</svg>
</svg>
<defs>
<filter id="a">
<feColorMatrix class="icon-fecolormatrix" values="0 0 0 0 0.078125  0 0 0 0 0.078125  0 0 0 0 0.078125  0 0 0 1 0"/>
</filter>
</defs>
</g>
<g transform="translate(0 78.924)" data-d="text">
<g class="tp-name iconsvg-namesvg" fill-rule="" data-gra="path-name">
<g transform="scale(1)">
<path transform="translate(-1.05 16.7)" d="m1.05-2.13 1.25-1.45q0.88 0.93 2.06 1.49 1.19 0.56 2.47 0.56 1.62 0 2.52-0.73 0.9-0.74 0.9-1.94 0-0.63-0.21-1.06-0.21-0.44-0.58-0.75-0.36-0.32-0.86-0.57t-1.07-0.52l-2.35-1.03q-0.58-0.25-1.18-0.59-0.6-0.36-1.07-0.86-0.48-0.5-0.78-1.18-0.3-0.69-0.3-1.59 0-0.93 0.39-1.73t1.07-1.38q0.69-0.59 1.63-0.92 0.94-0.32 2.06-0.32 1.47 0 2.73 0.56 1.25 0.56 2.12 1.46l-1.12 1.35q-0.75-0.72-1.67-1.13-0.91-0.42-2.06-0.42-1.37 0-2.21 0.64t-0.84 1.76q0 0.6 0.24 1.02 0.23 0.41 0.64 0.72 0.4 0.31 0.87 0.55 0.48 0.24 0.98 0.44l2.32 1q0.7 0.3 1.33 0.69 0.62 0.38 1.07 0.9 0.45 0.51 0.71 1.2 0.27 0.68 0.27 1.58 0 0.98-0.39 1.83t-1.11 1.49q-0.73 0.63-1.75 1-1.03 0.36-2.33 0.36-1.72 0-3.2-0.65-1.47-0.65-2.55-1.78zm17.03 2.13v-6.35l-4.93-10.05h2.23l2.12 4.62q0.4 0.9 0.78 1.78 0.37 0.87 0.8 1.8h0.1q0.42-0.93 0.85-1.8 0.42-0.88 0.8-1.78l2.1-4.62h2.17l-4.92 10.05v6.35h-2.1zm9.25 0v-16.4h2.15l5.92 10.3 1.78 3.4h0.1q-0.08-1.25-0.17-2.59-0.08-1.34-0.08-2.64v-8.47h1.97v16.4h-2.15l-5.95-10.33-1.77-3.37h-0.1q0.1 1.25 0.18 2.54 0.09 1.28 0.09 2.58v8.58h-1.97zm18.22-6.68h4.93l-0.78-2.5q-0.45-1.37-0.85-2.73-0.4-1.37-0.8-2.79h-0.1q-0.37 1.42-0.78 2.79-0.4 1.36-0.84 2.73l-0.78 2.5zm7 6.68-1.55-5h-5.98l-1.57 5h-2.12l5.55-16.4h2.35l5.54 16.4h-2.22zm2.78 0 4.77-8.47-4.45-7.93h2.3l2.23 4.2q0.32 0.57 0.61 1.11t0.66 1.26h0.1q0.35-0.72 0.61-1.26 0.27-0.54 0.57-1.11l2.17-4.2h2.2l-4.47 8.02 4.77 8.38h-2.3l-2.4-4.42q-0.32-0.61-0.66-1.24-0.34-0.64-0.74-1.39h-0.1q-0.35 0.75-0.67 1.39-0.33 0.63-0.63 1.24l-2.37 4.42h-2.2zm14.7 0v-16.4h2.07v16.4h-2.07zm5.37-2.13 1.25-1.45q0.88 0.93 2.06 1.49 1.19 0.56 2.47 0.56 1.62 0 2.52-0.73 0.9-0.74 0.9-1.94 0-0.63-0.21-1.06-0.21-0.44-0.58-0.75-0.36-0.32-0.86-0.57t-1.07-0.52l-2.35-1.03q-0.58-0.25-1.18-0.59-0.6-0.36-1.07-0.86-0.48-0.5-0.78-1.18-0.3-0.69-0.3-1.59 0-0.93 0.39-1.73t1.07-1.38q0.69-0.59 1.63-0.92 0.94-0.32 2.06-0.32 1.48 0 2.73 0.56t2.12 1.46l-1.12 1.35q-0.75-0.72-1.67-1.13-0.91-0.42-2.06-0.42-1.37 0-2.21 0.64t-0.84 1.76q0 0.6 0.24 1.02 0.24 0.41 0.64 0.72t0.87 0.55q0.48 0.24 0.98 0.44l2.32 1q0.7 0.3 1.33 0.69 0.62 0.38 1.07 0.9 0.45 0.51 0.71 1.2 0.27 0.68 0.27 1.58 0 0.98-0.39 1.83t-1.11 1.49q-0.73 0.63-1.75 1-1.03 0.36-2.33 0.36-1.72 0-3.2-0.65-1.47-0.65-2.55-1.78z"/>
</g>
</g>
</g>
</g>
</g>
</mask>
</svg>
